<?xml version="1.0" encoding="UTF-8"?>
<!DOCTYPE svg PUBLIC "-//W3C//DTD SVG 1.1//EN" "http://www.w3.org/Graphics/SVG/1.1/DTD/svg11.dtd">
<svg width="134mm" height="75mm" viewBox="0 0 13400 7500" version="1.1" xmlns="http://www.w3.org/2000/svg" stroke-width="28.222" stroke-linejoin="round" xml:space="preserve">
 <path fill="rgb(0,69,134)" stroke="none" d="M 8893,2243 C 8752,2080 8595,1932 8423,1803 8171,1613 7891,1465 7594,1365 7296,1265 6986,1215 6673,1215 L 6673,4297 6673,4297 6673,4297 6673,4297 8893,2243 Z"/>
 <path fill="rgb(255,66,14)" stroke="none" d="M 6013,7304 C 6229,7355 6451,7381 6673,7381 6986,7381 7296,7330 7594,7230 7891,7130 8171,6982 8423,6792 8676,6601 8898,6371 9083,6109 9266,5848 9409,5558 9506,5250 9602,4942 9651,4621 9651,4297 9651,3973 9602,3653 9506,3345 9409,3037 9266,2747 9083,2486 9023,2401 8960,2320 8893,2243 L 6673,4297 6673,4297 6673,4297 6673,4297 6673,4297 6673,4297 6673,4297 6673,4297 6673,4297 6673,4297 6013,7304 Z"/>
 <path fill="rgb(255,211,32)" stroke="none" d="M 3918,3128 C 3890,3199 3864,3272 3841,3345 3744,3653 3696,3973 3696,4297 3696,4621 3744,4942 3841,5250 3937,5558 4080,5848 4264,6109 4448,6371 4670,6601 4923,6792 5175,6982 5456,7130 5753,7230 5839,7258 5925,7283 6013,7304 L 6673,4297 6673,4297 6673,4297 6673,4297 6673,4297 6673,4297 6673,4297 6673,4297 3918,3128 Z"/>
 <path fill="rgb(87,157,28)" stroke="none" d="M 4927,1800 C 4926,1801 4924,1802 4923,1803 4670,1994 4448,2224 4264,2486 4125,2685 4009,2900 3918,3128 L 6673,4297 6673,4297 6673,4297 6673,4297 4927,1800 Z"/>
 <path fill="rgb(126,0,33)" stroke="none" d="M 6673,1215 C 6360,1215 6050,1265 5753,1365 5457,1465 5179,1612 4927,1800 L 6673,4297 6673,4297 6673,4297 6673,1215 Z"/>
 <text class="TextShape"><tspan class="TextParagraph" font-family="Arial, sans-serif" font-size="459px" font-weight="400"><tspan class="TextPosition" x="147" y="821"><tspan fill="rgb(0,0,0)" stroke="none">How important is it for you to have legal software on your computer?</tspan></tspan></tspan></text>
</svg>